<svg xmlns="http://www.w3.org/2000/svg" xmlns:xlink="http://www.w3.org/1999/xlink" width="1500" zoomAndPan="magnify" viewBox="0 0 1125 1124.99995" height="1500" preserveAspectRatio="xMidYMid meet" version="1.0"><defs><clipPath id="e477c73a01"><path d="M 456.875 326.113281 L 794.375 326.113281 L 794.375 663.613281 L 456.875 663.613281 Z M 456.875 326.113281 " clip-rule="nonzero"/></clipPath><clipPath id="18f6eda19d"><path d="M 509.375 326.113281 L 741.875 326.113281 C 770.871094 326.113281 794.375 349.621094 794.375 378.613281 L 794.375 611.113281 C 794.375 640.109375 770.871094 663.613281 741.875 663.613281 L 509.375 663.613281 C 480.382812 663.613281 456.875 640.109375 456.875 611.113281 L 456.875 378.613281 C 456.875 349.621094 480.382812 326.113281 509.375 326.113281 Z M 509.375 326.113281 " clip-rule="nonzero"/></clipPath><clipPath id="b358ce543b"><path d="M 0.875 0.113281 L 338.375 0.113281 L 338.375 337.613281 L 0.875 337.613281 Z M 0.875 0.113281 " clip-rule="nonzero"/></clipPath><clipPath id="c6249a33ea"><path d="M 53.375 0.113281 L 285.875 0.113281 C 314.871094 0.113281 338.375 23.621094 338.375 52.613281 L 338.375 285.113281 C 338.375 314.109375 314.871094 337.613281 285.875 337.613281 L 53.375 337.613281 C 24.382812 337.613281 0.875 314.109375 0.875 285.113281 L 0.875 52.613281 C 0.875 23.621094 24.382812 0.113281 53.375 0.113281 Z M 53.375 0.113281 " clip-rule="nonzero"/></clipPath><clipPath id="887e0aa543"><rect x="0" width="339" y="0" height="338"/></clipPath><clipPath id="4bb19607f9"><path d="M 0.875 0.113281 L 338.375 0.113281 L 338.375 337.613281 L 0.875 337.613281 Z M 0.875 0.113281 " clip-rule="nonzero"/></clipPath><clipPath id="aca902f56f"><path d="M 53.375 0.113281 L 285.875 0.113281 C 314.871094 0.113281 338.375 23.621094 338.375 52.613281 L 338.375 285.113281 C 338.375 314.109375 314.871094 337.613281 285.875 337.613281 L 53.375 337.613281 C 24.382812 337.613281 0.875 314.109375 0.875 285.113281 L 0.875 52.613281 C 0.875 23.621094 24.382812 0.113281 53.375 0.113281 Z M 53.375 0.113281 " clip-rule="nonzero"/></clipPath><clipPath id="36b188c5d4"><rect x="0" width="339" y="0" height="338"/></clipPath><clipPath id="b2c675cdea"><path d="M 455.375 414.769531 L 793 414.769531 L 793 663.613281 L 455.375 663.613281 Z M 455.375 414.769531 " clip-rule="nonzero"/></clipPath><clipPath id="8185cad4b2"><path d="M 507.875 414.769531 L 740.375 414.769531 C 769.371094 414.769531 792.875 438.273438 792.875 467.269531 L 792.875 611.113281 C 792.875 640.109375 769.371094 663.613281 740.375 663.613281 L 507.875 663.613281 C 478.882812 663.613281 455.375 640.109375 455.375 611.113281 L 455.375 467.269531 C 455.375 438.273438 478.882812 414.769531 507.875 414.769531 Z M 507.875 414.769531 " clip-rule="nonzero"/></clipPath><clipPath id="2238a48365"><path d="M 0.375 0.769531 L 337.960938 0.769531 L 337.960938 249.613281 L 0.375 249.613281 Z M 0.375 0.769531 " clip-rule="nonzero"/></clipPath><clipPath id="bb867cb9ab"><path d="M 52.875 0.769531 L 285.375 0.769531 C 314.371094 0.769531 337.875 24.273438 337.875 53.269531 L 337.875 197.113281 C 337.875 226.109375 314.371094 249.613281 285.375 249.613281 L 52.875 249.613281 C 23.882812 249.613281 0.375 226.109375 0.375 197.113281 L 0.375 53.269531 C 0.375 24.273438 23.882812 0.769531 52.875 0.769531 Z M 52.875 0.769531 " clip-rule="nonzero"/></clipPath><clipPath id="9e5cb3b905"><rect x="0" width="338" y="0" height="250"/></clipPath><clipPath id="33015dcae4"><path d="M 455.375 494.863281 L 792.875 494.863281 L 792.875 663.613281 L 455.375 663.613281 Z M 455.375 494.863281 " clip-rule="nonzero"/></clipPath><clipPath id="42ddde96df"><path d="M 507.875 494.863281 L 740.375 494.863281 C 769.371094 494.863281 792.875 518.371094 792.875 547.363281 L 792.875 611.113281 C 792.875 640.109375 769.371094 663.613281 740.375 663.613281 L 507.875 663.613281 C 478.882812 663.613281 455.375 640.109375 455.375 611.113281 L 455.375 547.363281 C 455.375 518.371094 478.882812 494.863281 507.875 494.863281 Z M 507.875 494.863281 " clip-rule="nonzero"/></clipPath><clipPath id="7ec0c2bf5d"><path d="M 0.375 0.863281 L 337.875 0.863281 L 337.875 169.613281 L 0.375 169.613281 Z M 0.375 0.863281 " clip-rule="nonzero"/></clipPath><clipPath id="7c40a5a9df"><path d="M 52.875 0.863281 L 285.375 0.863281 C 314.371094 0.863281 337.875 24.371094 337.875 53.363281 L 337.875 117.113281 C 337.875 146.109375 314.371094 169.613281 285.375 169.613281 L 52.875 169.613281 C 23.882812 169.613281 0.375 146.109375 0.375 117.113281 L 0.375 53.363281 C 0.375 24.371094 23.882812 0.863281 52.875 0.863281 Z M 52.875 0.863281 " clip-rule="nonzero"/></clipPath><clipPath id="4618c5c008"><rect x="0" width="338" y="0" height="170"/></clipPath></defs><g clip-path="url(#e477c73a01)"><g clip-path="url(#18f6eda19d)"><g transform="matrix(1, 0, 0, 1, 456, 326)"><g clip-path="url(#887e0aa543)"><g clip-path="url(#b358ce543b)"><g clip-path="url(#c6249a33ea)"><path fill="#919191" d="M 0.875 0.113281 L 338.375 0.113281 L 338.375 337.613281 L 0.875 337.613281 Z M 0.875 0.113281 " fill-opacity="1" fill-rule="nonzero"/></g></g></g></g><g transform="matrix(1, 0, 0, 1, 456, 326)"><g clip-path="url(#36b188c5d4)"><g clip-path="url(#4bb19607f9)"><g clip-path="url(#aca902f56f)"><path fill="#fff3c2" d="M 0.875 0.113281 L 338.375 0.113281 L 338.375 337.613281 L 0.875 337.613281 Z M 0.875 0.113281 " fill-opacity="1" fill-rule="nonzero"/></g></g></g></g></g></g><g clip-path="url(#b2c675cdea)"><g clip-path="url(#8185cad4b2)"><g transform="matrix(1, 0, 0, 1, 455, 414)"><g clip-path="url(#9e5cb3b905)"><g clip-path="url(#2238a48365)"><g clip-path="url(#bb867cb9ab)"><path fill="#5ca3ff" d="M 0.375 0.769531 L 337.679688 0.769531 L 337.679688 249.613281 L 0.375 249.613281 Z M 0.375 0.769531 " fill-opacity="1" fill-rule="nonzero"/></g></g></g></g></g></g><g clip-path="url(#33015dcae4)"><g clip-path="url(#42ddde96df)"><g transform="matrix(1, 0, 0, 1, 455, 494)"><g clip-path="url(#4618c5c008)"><g clip-path="url(#7ec0c2bf5d)"><g clip-path="url(#7c40a5a9df)"><path fill="#c2ffe1" d="M 0.375 0.863281 L 337.875 0.863281 L 337.875 169.613281 L 0.375 169.613281 Z M 0.375 0.863281 " fill-opacity="1" fill-rule="nonzero"/></g></g></g></g></g></g><path fill="#000000" d="M 596.894531 538.839844 C 599.402344 541.273438 599.460938 545.28125 597.027344 547.789062 L 527.417969 619.507812 C 526.214844 620.746094 524.558594 621.4375 522.832031 621.425781 C 521.105469 621.414062 519.460938 620.699219 518.277344 619.445312 L 482.417969 581.476562 C 480.015625 578.933594 480.132812 574.929688 482.671875 572.53125 C 485.210938 570.128906 489.21875 570.246094 491.617188 572.785156 L 522.9375 605.949219 L 587.945312 538.972656 C 590.378906 536.464844 594.386719 536.40625 596.894531 538.839844 Z M 596.894531 538.839844 " fill-opacity="1" fill-rule="evenodd"/></svg>